# xmcd
#
# Track frame offsets: 
#        150
#        10470
#        24620
#        37350
#        53024
#        68227
#        82655
#        105155
#        117999
#        130059
#        180014
#        194808
#        206423
#        220190
#        234880
#        249186
#        260619
#        283546
#        302737
#
# Disc length: 4214 seconds
#
# Revision: 1
# Processed by: cddbd v1.5.2PL0 Copyright (c) Steve Scherf et al.
# Submitted via: ExactAudioCopy v1.3
#
DISCID=fd107413
DTITLE=canned heat - the best of    cook book
DYEAR=2008
DGENRE=Blues
TTITLE0=Bullfrog Blues 2:05
TTITLE1=Rollin' And Tumblin' 2:40
TTITLE2=Going Up The Country 2:51
TTITLE3=Amphetamine Annie 3:33
TTITLE4=Time Was 3:21 
TTITLE5=Boogie Music 3:13
TTITLE6=On The Road Again
TTITLE7=Same All Over
TTITLE8=Sic 'Em Pigs 
TTITLE9=Fried Hockey Boogie
TTITLE10=xxx
TTITLE11=xxx
TTITLE12=xxx
TTITLE13=xxx
TTITLE14=xxx
TTITLE15=xxx
TTITLE16=xxx
TTITLE17=xxx
TTITLE18=xxx
EXTD=1967 to 1972  Compilation 2008
EXTT0=
EXTT1=
EXTT2=
EXTT3=
EXTT4=
EXTT5=
EXTT6=
EXTT7=
EXTT8=
EXTT9=canned heat
EXTT10=
EXTT11=
EXTT12=
EXTT13=
EXTT14=
EXTT15=
EXTT16=
EXTT17=
EXTT18=
PLAYORDER=
